# xmcd CD database file
#
# Track frame offsets:
#	150
#	18609
#	32007
#	45137
#	59882
#	77915
#	94565
#	108266
#	121855
#	137830
#	155170
#	169932
#	185070
#	198186
#	215700
#	232762
#	249895
#	264850
#	283524
#	300062
#
# Disc length: 4222 seconds
#
# Revision: 0
# Processed by: cddbd v1.5.2PL0 Copyright (c) Steve Scherf et al.
# Submitted via: CDex 1.51
#
DISCID=07107c14
DTITLE=Various Artist - LET'S BOOTS DANCIN' 2005
DYEAR=2005
DGENRE=Country
TTITLE0=Alan Jackson/Chattahoochee
TTITLE1=Kenny Chesney/High&Dry
TTITLE2=Jeff Bates/Country Enough
TTITLE3=Carolyn Dawn Johnson/Head Over High Heels
TTITLE4=Keith Anderson/Podunk
TTITLE5=Clay Walker/I'm In The Nood For You
TTITLE6=Tracy Byrd/Watermelon Crawl
TTITLE7=Jeff Bates/My Inlaws Are Outlaws
TTITLE8=Lonestar/From There To Here
TTITLE9=Carolyn Dawn Johnson/Simple Life
TTITLE10=Sara Evans/Love Don't Be A Stranger
TTITLE11=Diamond Rio/I Think I Love You
TTITLE12=Kenny Chesney/I Want My Rib Back
TTITLE13=Lonestar/Country Fair
TTITLE14=Andy Griggs/Sweetheart Of Beinja Bayou
TTITLE15=Sara Evans/Suds In The Bucket
TTITLE16=Brad Paisley/Long Sermon
TTITLE17=Kenny Chesney/She Thinks My Tractor's Sexy
TTITLE18=Tracy Byrd/I'm From The Country
TTITLE19=Brooks and Dunn/You Can't Take The Honky Tonk Out Of The Girl
EXTD=YEAR: 2005
EXTT0=
EXTT1=
EXTT2=
EXTT3=
EXTT4=
EXTT5=
EXTT6=
EXTT7=
EXTT8=
EXTT9=
EXTT10=
EXTT11=
EXTT12=
EXTT13=
EXTT14=
EXTT15=
EXTT16=
EXTT17=
EXTT18=
EXTT19=
PLAYORDER=
